<?xml version="1.0" encoding="UTF-8" standalone="no"?>
<!-- Created with Inkscape (http://www.inkscape.org/) -->

<svg
   xmlns:dc="http://purl.org/dc/elements/1.1/"
   xmlns:cc="http://creativecommons.org/ns#"
   xmlns:rdf="http://www.w3.org/1999/02/22-rdf-syntax-ns#"
   xmlns:svg="http://www.w3.org/2000/svg"
   xmlns="http://www.w3.org/2000/svg"
   xmlns:sodipodi="http://sodipodi.sourceforge.net/DTD/sodipodi-0.dtd"
   xmlns:inkscape="http://www.inkscape.org/namespaces/inkscape"
   width="671.6189mm"
   height="226.69359mm"
   viewBox="0 0 671.6189 226.69359"
   version="1.1"
   id="svg8"
   sodipodi:docname="Blindflug_Logo.svg"
   inkscape:version="0.92.2 (5c3e80d, 2017-08-06)">
  <defs
     id="defs2">
    <clipPath
       clipPathUnits="userSpaceOnUse"
       id="clipPath18">
      <path
         d="M 0,1280 H 2304 V 0 H 0 Z"
         id="path16"
         inkscape:connector-curvature="0" />
    </clipPath>
    <clipPath
       clipPathUnits="userSpaceOnUse"
       id="clipPath102">
      <path
         d="M 242.64,358.787 H 703.102 V 824.286 H 242.64 Z"
         id="path100"
         inkscape:connector-curvature="0" />
    </clipPath>
    <clipPath
       clipPathUnits="userSpaceOnUse"
       id="clipPath114">
      <path
         d="M 0,1280 H 2304 V 0 H 0 Z"
         id="path112"
         inkscape:connector-curvature="0" />
    </clipPath>
  </defs>
  <sodipodi:namedview
     id="base"
     pagecolor="#ffffff"
     bordercolor="#666666"
     borderopacity="1.0"
     inkscape:pageopacity="0.0"
     inkscape:pageshadow="2"
     inkscape:zoom="0.35"
     inkscape:cx="1054.2857"
     inkscape:cy="331.42857"
     inkscape:document-units="mm"
     inkscape:current-layer="g12"
     showgrid="false"
     inkscape:window-width="1920"
     inkscape:window-height="1018"
     inkscape:window-x="-8"
     inkscape:window-y="-8"
     inkscape:window-maximized="1" />
  <metadata
     id="metadata5">
    <rdf:RDF>
      <cc:Work
         rdf:about="">
        <dc:format>image/svg+xml</dc:format>
        <dc:type
           rdf:resource="http://purl.org/dc/dcmitype/StillImage" />
        <dc:title />
      </cc:Work>
    </rdf:RDF>
  </metadata>
  <g
     inkscape:label="Layer 1"
     inkscape:groupmode="layer"
     id="layer1"
     transform="translate(-1.160826e-6,-70.306416)">
    <g
       id="g10"
       transform="matrix(0.35277777,0,0,-0.35277777,-414.77879,339.68006)">
      <g
         id="g12"
         transform="translate(975.47223,-197.27345)">
        <g
           transform="translate(944.4287,556.1474)"
           id="g20"
           style="fill:#ffffff;fill-opacity:1">
          <path
             inkscape:connector-curvature="0"
             id="path22"
             style="fill:#ffffff;fill-opacity:1;fill-rule:nonzero;stroke:none"
             d="m 0,0 c 1.06,2.473 1.588,5.003 1.588,7.598 0,3.768 -1.116,7.355 -3.354,10.772 -2.119,3.183 -4.949,5.479 -8.48,6.892 -2.355,1.057 -4.83,1.589 -7.417,1.589 h -12.191 c -0.941,0 -1.708,-0.295 -2.298,-0.88 -0.588,-0.595 -0.88,-1.357 -0.88,-2.299 V -8.653 c 0,-0.828 0.292,-1.534 0.88,-2.122 0.59,-0.591 1.357,-0.883 2.298,-0.883 h 12.191 c 3.768,0 7.357,1.061 10.775,3.179 C -3.71,-6.242 -1.412,-3.416 0,0 m 0,55.999 c 1.06,2.472 1.588,5.005 1.588,7.595 0,3.649 -1.116,7.243 -3.354,10.778 -2.237,3.293 -5.065,5.591 -8.48,6.885 -2.355,1.064 -4.83,1.592 -7.417,1.592 h -12.191 c -0.941,0 -1.708,-0.296 -2.298,-0.885 -0.588,-0.588 -0.88,-1.355 -0.88,-2.297 V 47.343 c 0,-0.946 0.292,-1.678 0.88,-2.211 0.59,-0.525 1.357,-0.791 2.298,-0.791 h 12.191 c 3.768,0 7.357,1.057 10.775,3.176 3.178,2.237 5.476,5.066 6.888,8.482 M 12.72,43.102 C 12.127,42.159 11.452,41.25 10.686,40.362 9.921,39.482 9.126,38.625 8.301,37.804 7.713,37.212 7.421,36.48 7.421,35.593 c 0,-0.881 0.292,-1.616 0.88,-2.204 3.415,-3.42 6.008,-7.244 7.776,-11.485 1.882,-4.477 2.825,-9.244 2.825,-14.306 0,-7.539 -2.063,-14.372 -6.182,-20.491 -4.24,-6.245 -9.658,-10.664 -16.251,-13.249 -4.596,-2.004 -9.305,-3.006 -14.132,-3.006 h -24.025 c -2.593,0 -4.655,0.884 -6.182,2.648 -1.769,1.771 -2.651,3.83 -2.651,6.186 V 91.503 c 0,2.355 0.882,4.418 2.651,6.184 1.644,1.648 3.71,2.472 6.182,2.472 h 24.025 c 7.417,0 14.245,-2.061 20.488,-6.182 6.008,-4.24 10.425,-9.597 13.252,-16.074 1.882,-4.477 2.825,-9.247 2.825,-14.309 0,-7.538 -2.063,-14.368 -6.182,-20.492" />
        </g>
        <g
           transform="translate(987.1779,656.3082)"
           id="g24"
           style="fill:#ffffff;fill-opacity:1">
          <path
             inkscape:connector-curvature="0"
             id="path26"
             style="fill:#ffffff;fill-opacity:1;fill-rule:nonzero;stroke:none"
             d="m 0,0 c 2.354,0 4.385,-0.856 6.095,-2.561 1.705,-1.708 2.56,-3.74 2.56,-6.095 v -100.161 c 0,-0.824 0.292,-1.53 0.885,-2.118 0.585,-0.592 1.352,-0.888 2.294,-0.888 h 21.905 c 2.355,0 4.386,-0.854 6.095,-2.559 1.707,-1.708 2.561,-3.741 2.561,-6.093 0,-2.474 -0.854,-4.566 -2.561,-6.271 -1.709,-1.708 -3.74,-2.559 -6.095,-2.559 H 0 c -2.358,0 -4.417,0.851 -6.184,2.559 -1.766,1.705 -2.649,3.797 -2.649,6.271 V -8.656 c 0,2.355 0.883,4.387 2.649,6.095 C -4.417,-0.856 -2.358,0 0,0" />
        </g>
        <g
           transform="translate(1055.453,529.5621)"
           id="g28"
           style="fill:#ffffff;fill-opacity:1">
          <path
             inkscape:connector-curvature="0"
             id="path30"
             style="fill:#ffffff;fill-opacity:1;fill-rule:nonzero;stroke:none"
             d="m 0,0 c -1.71,-1.708 -3.742,-2.559 -6.095,-2.559 -2.359,0 -4.387,0.851 -6.096,2.559 -1.709,1.705 -2.56,3.797 -2.56,6.271 V 118.09 c 0,2.355 0.851,4.387 2.56,6.095 1.709,1.702 3.737,2.561 6.096,2.561 2.353,0 4.385,-0.859 6.095,-2.561 1.705,-1.708 2.559,-3.74 2.559,-6.095 V 6.271 C 2.559,3.797 1.705,1.705 0,0" />
        </g>
        <g
           transform="translate(1091.3103,529.7394)"
           id="g32"
           style="fill:#ffffff;fill-opacity:1">
          <path
             inkscape:connector-curvature="0"
             id="path34"
             style="fill:#ffffff;fill-opacity:1;fill-rule:nonzero;stroke:none"
             d="m 0,0 c -1.708,-1.708 -3.742,-2.562 -6.095,-2.562 -2.359,0 -4.387,0.854 -6.092,2.562 -1.712,1.705 -2.562,3.797 -2.562,6.271 V 118.09 c 0,2.001 0.617,3.798 1.852,5.389 1.239,1.587 2.856,2.617 4.857,3.088 0.471,0.117 1.12,0.177 1.945,0.177 1.647,0 3.178,-0.44 4.594,-1.325 1.414,-0.88 2.531,-2.091 3.354,-3.622 L 34.005,52.905 c 0.468,-0.94 1.174,-1.298 2.118,-1.058 1.06,0.233 1.592,0.824 1.592,1.764 v 64.479 c 0,2.354 0.851,4.386 2.56,6.096 1.706,1.704 3.737,2.558 6.096,2.558 2.353,0 4.385,-0.854 6.095,-2.558 1.705,-1.71 2.559,-3.742 2.559,-6.096 V 6.271 c 0,-2.004 -0.619,-3.83 -1.853,-5.479 -1.238,-1.646 -2.859,-2.707 -4.858,-3.177 -0.353,0 -0.706,-0.03 -1.06,-0.088 -0.356,-0.06 -0.648,-0.089 -0.883,-0.089 -1.653,0 -3.21,0.443 -4.683,1.323 -1.473,0.884 -2.561,2.149 -3.267,3.801 L 6.095,71.455 C 5.857,72.161 5.328,72.513 4.504,72.513 H 3.976 C 3.031,72.273 2.559,71.632 2.559,70.571 V 6.271 C 2.559,3.797 1.705,1.705 0,0" />
        </g>
        <g
           transform="translate(1182.3734,547.6689)"
           id="g36"
           style="fill:#ffffff;fill-opacity:1">
          <path
             inkscape:connector-curvature="0"
             id="path38"
             style="fill:#ffffff;fill-opacity:1;fill-rule:nonzero;stroke:none"
             d="M 0,0 C 0,-0.824 0.293,-1.531 0.884,-2.119 1.47,-2.71 2.234,-3.006 3.178,-3.006 h 9.716 c 3.767,0 7.36,1.064 10.778,3.18 3.178,2.237 5.475,5.062 6.888,8.482 1.06,2.47 1.592,5.003 1.592,7.598 v 55.994 c 0,3.65 -1.124,7.242 -3.358,10.777 -2.24,3.298 -5.067,5.591 -8.48,6.89 -2.358,1.059 -4.83,1.591 -7.42,1.591 H 3.178 C 2.234,91.506 1.47,91.209 0.884,90.621 0.293,90.028 0,89.266 0,88.327 Z m -8.656,-20.492 c -2.357,0 -4.417,0.884 -6.183,2.651 -1.765,1.764 -2.651,3.824 -2.651,6.183 v 111.819 c 0,2.355 0.886,4.416 2.651,6.182 1.65,1.649 3.708,2.474 6.183,2.474 h 21.55 c 7.42,0 14.248,-2.063 20.491,-6.184 6.009,-4.241 10.422,-9.601 13.25,-16.075 1.881,-4.478 2.827,-9.248 2.827,-14.31 V 16.254 c 0,-7.539 -2.063,-14.372 -6.184,-20.492 -4.241,-6.244 -9.656,-10.659 -16.249,-13.251 -4.596,-2.004 -9.308,-3.003 -14.135,-3.003 z" />
        </g>
        <g
           transform="translate(1266.543,638.2899)"
           id="g40"
           style="fill:#ffffff;fill-opacity:1">
          <path
             inkscape:connector-curvature="0"
             id="path42"
             style="fill:#ffffff;fill-opacity:1;fill-rule:nonzero;stroke:none"
             d="m 0,0 c -0.531,-0.591 -0.794,-1.355 -0.794,-2.298 v -32.324 c 0,-2.007 0.999,-3.006 3,-3.006 H 25.35 c 2.354,0 4.385,-0.854 6.092,-2.562 1.708,-1.705 2.562,-3.794 2.562,-6.268 0,-2.358 -0.854,-4.388 -2.562,-6.093 -1.707,-1.708 -3.738,-2.566 -6.092,-2.566 H 2.206 c -0.941,0 -1.674,-0.296 -2.206,-0.881 -0.531,-0.591 -0.794,-1.356 -0.794,-2.296 v -43.985 c 0,-2.474 -0.885,-4.567 -2.651,-6.272 -1.765,-1.708 -3.828,-2.562 -6.182,-2.562 -2.358,0 -4.39,0.854 -6.095,2.562 -1.71,1.705 -2.56,3.798 -2.56,6.272 V 9.541 c 0,2.351 0.85,4.383 2.56,6.091 1.705,1.71 3.737,2.564 6.095,2.564 H 34.18 c 2.357,0 4.386,-0.854 6.095,-2.564 1.705,-1.708 2.563,-3.74 2.563,-6.091 0,-2.358 -0.858,-4.39 -2.563,-6.097 C 38.566,1.736 36.537,0.885 34.18,0.885 H 2.206 C 1.265,0.885 0.532,0.586 0,0" />
        </g>
        <g
           transform="translate(1330.3994,656.3082)"
           id="g44"
           style="fill:#ffffff;fill-opacity:1">
          <path
             inkscape:connector-curvature="0"
             id="path46"
             style="fill:#ffffff;fill-opacity:1;fill-rule:nonzero;stroke:none"
             d="m 0,0 c 2.355,0 4.387,-0.856 6.095,-2.561 1.707,-1.708 2.561,-3.74 2.561,-6.095 v -100.161 c 0,-0.824 0.292,-1.53 0.886,-2.118 0.584,-0.592 1.351,-0.888 2.296,-0.888 H 33.74 c 2.354,0 4.385,-0.854 6.095,-2.559 1.706,-1.708 2.56,-3.741 2.56,-6.093 0,-2.474 -0.854,-4.566 -2.56,-6.271 -1.71,-1.708 -3.741,-2.559 -6.095,-2.559 H 0 c -2.357,0 -4.417,0.851 -6.182,2.559 -1.766,1.705 -2.651,3.797 -2.651,6.271 V -8.656 c 0,2.355 0.885,4.387 2.651,6.095 C -4.417,-0.856 -2.357,0 0,0" />
        </g>
        <g
           transform="translate(1391.8746,656.3082)"
           id="g48"
           style="fill:#ffffff;fill-opacity:1">
          <path
             inkscape:connector-curvature="0"
             id="path50"
             style="fill:#ffffff;fill-opacity:1;fill-rule:nonzero;stroke:none"
             d="M 0,0 C 2.354,0 4.387,-0.856 6.095,-2.561 7.8,-4.269 8.654,-6.301 8.654,-8.656 v -86.558 c 0,-3.179 0.943,-6.3 2.827,-9.365 1.769,-2.707 4.241,-4.708 7.421,-6.005 0.941,-0.47 1.971,-0.792 3.091,-0.972 1.117,-0.175 2.209,-0.267 3.265,-0.267 3.537,0 6.654,0.943 9.366,2.832 2.709,1.764 4.709,4.175 6.005,7.24 0.941,2.234 1.412,4.418 1.412,6.537 v 86.558 c 0,2.355 0.854,4.387 2.563,6.095 C 46.31,-0.856 48.342,0 50.699,0 c 2.355,0 4.384,-0.856 6.092,-2.561 1.709,-1.708 2.564,-3.74 2.564,-6.095 v -86.558 c 0,-7.066 -1.945,-13.425 -5.83,-19.079 -3.771,-5.535 -8.775,-9.654 -15.017,-12.365 -4.122,-1.767 -8.539,-2.647 -13.25,-2.647 -6.709,0 -13.01,1.941 -18.897,5.824 -2.711,1.886 -5.127,4.096 -7.246,6.629 -2.119,2.529 -3.827,5.325 -5.123,8.387 -1.766,4.244 -2.648,8.656 -2.648,13.251 v 86.558 c 0,2.355 0.853,4.387 2.561,6.095 C -4.391,-0.856 -2.358,0 0,0" />
        </g>
        <g
           transform="translate(1486.0273,628.9277)"
           id="g52"
           style="fill:#ffffff;fill-opacity:1">
          <path
             inkscape:connector-curvature="0"
             id="path54"
             style="fill:#ffffff;fill-opacity:1;fill-rule:nonzero;stroke:none"
             d="m 0,0 c -0.946,-2.119 -1.413,-4.241 -1.413,-6.361 v -61.298 c 0,-3.18 0.941,-6.301 2.825,-9.362 2.119,-2.825 4.596,-4.829 7.421,-6.005 1.766,-0.825 3.942,-1.239 6.536,-1.239 3.415,0 6.476,0.943 9.186,2.832 2.709,1.764 4.706,4.175 6.005,7.24 0.941,2.234 1.413,4.418 1.413,6.534 v 10.423 c 0,0.825 -0.296,1.531 -0.881,2.119 -0.593,0.591 -1.357,0.887 -2.298,0.887 h -7.596 c -2.357,0 -4.389,0.851 -6.095,2.559 -1.709,1.708 -2.559,3.797 -2.559,6.271 0,2.355 0.85,4.385 2.559,6.094 1.706,1.705 3.738,2.562 6.095,2.562 h 19.431 c 2.475,0 4.533,-0.884 6.182,-2.648 1.647,-1.649 2.475,-3.653 2.475,-6.008 v -22.259 c 0,-7.066 -1.945,-13.426 -5.829,-19.076 -3.771,-5.538 -8.718,-9.658 -14.842,-12.365 -4.237,-1.767 -8.654,-2.651 -13.246,-2.651 -6.831,0 -13.193,1.945 -19.08,5.831 -2.711,1.883 -5.119,4.093 -7.241,6.623 -2.121,2.533 -3.829,5.328 -5.125,8.39 -1.765,4.244 -2.646,8.655 -2.646,13.248 v 61.298 c 0,3.414 0.467,6.742 1.413,9.981 0.938,3.239 2.411,6.214 4.416,8.924 3.768,5.767 8.77,9.889 15.013,12.363 4.002,1.765 8.362,2.649 13.072,2.649 h 0.178 c 6.946,0 13.246,-1.943 18.902,-5.829 2.708,-1.884 5.122,-4.064 7.241,-6.536 2.119,-2.471 3.826,-5.241 5.123,-8.304 1.766,-4.239 2.651,-8.656 2.651,-13.248 0,-2.357 -0.857,-4.415 -2.564,-6.183 -1.708,-1.765 -3.74,-2.647 -6.093,-2.647 -2.356,0 -4.388,0.882 -6.092,2.647 -1.71,1.768 -2.564,3.826 -2.564,6.183 0,3.061 -0.941,6.123 -2.826,9.188 -2.118,2.825 -4.592,4.825 -7.42,6.003 -2.119,0.943 -4.24,1.418 -6.358,1.418 -1.766,0 -3.418,-0.24 -4.949,-0.707 C 8.891,9.067 7.421,8.36 6.008,7.418 3.297,5.652 1.294,3.18 0,0" />
        </g>
        <g
           transform="translate(1623.6006,642.1136)"
           id="g56"
           style="fill:#ffffff;fill-opacity:1">
          <path
             inkscape:connector-curvature="0"
             id="path58"
             style="fill:#ffffff;fill-opacity:1;fill-rule:nonzero;stroke:none"
             d="m 0,0 c -2.24,-1.531 -3.885,-3.533 -4.947,-6.005 -0.703,-1.65 -1.059,-3.418 -1.059,-5.3 0,-2.121 0.41,-4.06 1.236,-5.828 0.707,-2.003 1.945,-4.183 3.711,-6.539 1.412,-2.002 3.296,-4.15 5.652,-6.445 2.353,-2.297 5.3,-4.978 8.833,-8.039 1.531,-1.298 3.206,-2.737 5.036,-4.33 1.823,-1.587 3.618,-3.325 5.386,-5.21 1.881,-1.882 3.505,-3.679 4.856,-5.384 1.355,-1.712 2.62,-3.387 3.801,-5.036 1.881,-2.825 3.236,-5.476 4.06,-7.95 1.649,-4.238 2.476,-8.363 2.476,-12.365 0,-6.244 -1.827,-12.013 -5.477,-17.314 -3.416,-4.945 -7.948,-8.716 -13.603,-11.304 -4.006,-1.649 -8.009,-2.474 -12.011,-2.474 -6.358,0 -12.187,1.823 -17.489,5.476 -5.066,3.413 -8.831,7.95 -11.306,13.603 -1.53,3.768 -2.294,7.776 -2.294,12.013 0,2.471 0.85,4.56 2.56,6.272 1.705,1.704 3.737,2.558 6.096,2.558 2.353,0 4.385,-0.854 6.092,-2.558 1.704,-1.712 2.562,-3.801 2.562,-6.272 0,-2.595 0.764,-5.124 2.298,-7.594 1.647,-2.241 3.646,-3.89 6.005,-4.951 1.765,-0.706 3.592,-1.058 5.476,-1.058 2.825,0 5.358,0.766 7.595,2.297 2.237,1.649 3.884,3.646 4.948,6.008 0.707,1.767 1.06,3.59 1.06,5.473 0,2.119 -0.414,4.063 -1.239,5.831 -0.706,2 -1.884,4.119 -3.531,6.359 -1.534,2.001 -3.444,4.179 -5.742,6.537 -2.298,2.352 -5.271,5.062 -8.92,8.124 -2.241,2.004 -4.506,4.031 -6.804,6.094 -2.293,2.063 -4.446,4.27 -6.448,6.622 -4.591,4.951 -7.887,9.955 -9.89,15.017 -1.65,4.243 -2.472,8.363 -2.472,12.367 0,3.178 0.469,6.243 1.413,9.186 0.94,2.944 2.234,5.711 3.886,8.301 3.768,5.181 8.359,8.891 13.777,11.132 3.65,1.647 7.654,2.472 12.014,2.472 6.474,0 12.303,-1.766 17.487,-5.297 4.946,-3.418 8.714,-7.95 11.307,-13.605 1.529,-3.77 2.296,-7.833 2.296,-12.189 0,-2.355 -0.857,-4.387 -2.562,-6.094 -1.71,-1.711 -3.741,-2.562 -6.095,-2.562 -2.356,0 -4.387,0.851 -6.095,2.562 -1.707,1.707 -2.561,3.739 -2.561,6.094 0,2.707 -0.767,5.3 -2.296,7.772 -1.649,2.234 -3.707,3.886 -6.181,4.946 C 11.246,2.119 9.481,2.472 7.597,2.472 4.885,2.472 2.355,1.648 0,0" />
        </g>
        <g
           transform="translate(1702.5649,532.5909)"
           id="g60"
           style="fill:#ffffff;fill-opacity:1">
          <path
             inkscape:connector-curvature="0"
             id="path62"
             style="fill:#ffffff;fill-opacity:1;fill-rule:nonzero;stroke:none"
             d="M 0,0 C -2.357,0 -4.389,0.884 -6.095,2.651 -7.803,4.418 -8.654,6.475 -8.654,8.833 V 109.17 c 0,0.942 -0.296,1.706 -0.885,2.298 -0.592,0.584 -1.355,0.882 -2.295,0.882 h -16.428 c -2.359,0 -4.391,0.854 -6.095,2.562 -1.709,1.702 -2.564,3.735 -2.564,6.095 0,2.352 0.855,4.384 2.564,6.092 1.704,1.705 3.736,2.564 6.095,2.564 h 56.35 c 2.352,0 4.387,-0.859 6.095,-2.564 1.706,-1.708 2.561,-3.74 2.561,-6.092 0,-2.36 -0.855,-4.393 -2.561,-6.095 -1.708,-1.708 -3.743,-2.562 -6.095,-2.562 H 11.834 c -0.941,0 -1.678,-0.298 -2.206,-0.882 -0.529,-0.592 -0.795,-1.356 -0.795,-2.298 V 8.833 C 8.833,6.475 7.95,4.418 6.184,2.651 4.417,0.884 2.355,0 0,0" />
        </g>
        <g
           transform="translate(1760.8586,661.8992)"
           id="g64"
           style="fill:#ffffff;fill-opacity:1">
          <path
             inkscape:connector-curvature="0"
             id="path66"
             style="fill:#ffffff;fill-opacity:1;fill-rule:nonzero;stroke:none"
             d="M 0,0 C 2.355,0 4.387,-0.856 6.095,-2.561 7.8,-4.269 8.656,-6.301 8.656,-8.656 v -86.558 c 0,-3.179 0.941,-6.3 2.825,-9.365 1.766,-2.707 4.241,-4.707 7.421,-6.005 0.941,-0.47 1.971,-0.792 3.091,-0.972 1.117,-0.175 2.206,-0.267 3.265,-0.267 3.537,0 6.656,0.943 9.366,2.832 2.708,1.764 4.709,4.175 6.005,7.24 0.941,2.234 1.412,4.415 1.412,6.537 v 86.558 c 0,2.355 0.855,4.387 2.563,6.095 C 46.31,-0.856 48.342,0 50.698,0 c 2.353,0 4.385,-0.856 6.093,-2.561 1.71,-1.708 2.561,-3.74 2.561,-6.095 v -86.558 c 0,-7.066 -1.942,-13.425 -5.826,-19.079 -3.772,-5.538 -8.776,-9.654 -15.016,-12.365 -4.124,-1.767 -8.541,-2.647 -13.252,-2.647 -6.709,0 -13.01,1.941 -18.9,5.824 -2.708,1.886 -5.119,4.097 -7.241,6.629 -2.121,2.529 -3.829,5.325 -5.125,8.387 -1.766,4.244 -2.648,8.656 -2.648,13.251 v 86.558 c 0,2.355 0.853,4.387 2.561,6.095 C -4.391,-0.856 -2.359,0 0,0" />
        </g>
        <g
           transform="translate(1856.2479,553.2599)"
           id="g68"
           style="fill:#ffffff;fill-opacity:1">
          <path
             inkscape:connector-curvature="0"
             id="path70"
             style="fill:#ffffff;fill-opacity:1;fill-rule:nonzero;stroke:none"
             d="M 0,0 C 0,-0.824 0.293,-1.531 0.884,-2.119 1.47,-2.71 2.237,-3.006 3.179,-3.006 h 9.715 c 3.768,0 7.36,1.064 10.778,3.18 3.178,2.237 5.476,5.062 6.888,8.482 1.06,2.47 1.592,5.003 1.592,7.598 v 55.994 c 0,3.65 -1.123,7.242 -3.357,10.777 -2.241,3.298 -5.067,5.591 -8.481,6.89 -2.358,1.059 -4.83,1.591 -7.42,1.591 H 3.179 C 2.237,91.506 1.47,91.209 0.884,90.621 0.293,90.028 0,89.266 0,88.323 Z m -8.656,-20.492 c -2.357,0 -4.417,0.884 -6.182,2.651 -1.766,1.764 -2.651,3.824 -2.651,6.183 v 111.819 c 0,2.352 0.885,4.417 2.651,6.179 1.646,1.649 3.71,2.477 6.182,2.477 h 21.55 c 7.42,0 14.249,-2.063 20.491,-6.184 6.009,-4.241 10.422,-9.601 13.25,-16.075 1.881,-4.478 2.827,-9.248 2.827,-14.31 V 16.254 c 0,-7.539 -2.062,-14.375 -6.184,-20.492 -4.241,-6.244 -9.656,-10.659 -16.249,-13.251 -4.596,-2.004 -9.308,-3.003 -14.135,-3.003 z" />
        </g>
        <g
           transform="translate(1936.8861,535.1531)"
           id="g72"
           style="fill:#ffffff;fill-opacity:1">
          <path
             inkscape:connector-curvature="0"
             id="path74"
             style="fill:#ffffff;fill-opacity:1;fill-rule:nonzero;stroke:none"
             d="m 0,0 c -1.709,-1.708 -3.741,-2.562 -6.095,-2.562 -2.356,0 -4.387,0.854 -6.092,2.562 -1.71,1.705 -2.564,3.797 -2.564,6.271 V 118.09 c 0,2.355 0.854,4.384 2.564,6.095 1.705,1.702 3.736,2.561 6.092,2.561 2.354,0 4.386,-0.859 6.095,-2.561 1.705,-1.711 2.559,-3.74 2.559,-6.095 V 6.271 C 2.559,3.797 1.705,1.705 0,0" />
        </g>
        <g
           transform="translate(1974.7755,566.8599)"
           id="g76"
           style="fill:#ffffff;fill-opacity:1">
          <path
             inkscape:connector-curvature="0"
             id="path78"
             style="fill:#ffffff;fill-opacity:1;fill-rule:nonzero;stroke:none"
             d="m 0,0 c 0,-3.531 0.941,-6.652 2.825,-9.359 1.765,-2.713 4.179,-4.714 7.242,-6.008 2.002,-0.825 4.178,-1.235 6.537,-1.235 3.534,0 6.654,0.942 9.36,2.825 2.712,1.767 4.714,4.178 6.009,7.243 0.824,2.001 1.238,4.182 1.238,6.534 v 61.299 c 0,3.533 -0.946,6.595 -2.83,9.183 -1.766,2.712 -4.18,4.711 -7.242,6.009 -2.237,0.942 -4.417,1.412 -6.535,1.412 -3.18,0 -6.301,-0.944 -9.363,-2.825 C 4.531,73.312 2.529,70.84 1.233,67.657 0.764,66.716 0.44,65.686 0.266,64.566 0.087,63.446 0,62.359 0,61.299 Z m -2.472,-28.261 c -2.712,1.883 -5.125,4.09 -7.247,6.623 -2.119,2.529 -3.824,5.328 -5.12,8.393 -1.765,4.237 -2.651,8.656 -2.651,13.245 v 61.299 c 0,3.415 0.501,6.739 1.502,9.982 0.998,3.235 2.445,6.208 4.328,8.92 3.768,5.765 8.774,9.893 15.014,12.366 4.241,1.766 8.657,2.646 13.25,2.646 7.067,0 13.424,-1.939 19.079,-5.829 5.652,-3.768 9.715,-8.712 12.187,-14.838 1.884,-4.478 2.829,-8.889 2.829,-13.247 L 50.699,0 c 0,-6.83 -1.945,-13.189 -5.83,-19.076 -1.887,-2.71 -4.093,-5.121 -6.627,-7.244 -2.533,-2.121 -5.329,-3.83 -8.388,-5.121 -4.24,-1.77 -8.656,-2.651 -13.25,-2.651 -6.833,0 -13.19,1.945 -19.076,5.831" />
        </g>
        <g
           transform="translate(2065.0403,642.1136)"
           id="g80"
           style="fill:#ffffff;fill-opacity:1">
          <path
             inkscape:connector-curvature="0"
             id="path82"
             style="fill:#ffffff;fill-opacity:1;fill-rule:nonzero;stroke:none"
             d="m 0,0 c -2.238,-1.531 -3.885,-3.533 -4.948,-6.005 -0.704,-1.65 -1.056,-3.418 -1.056,-5.3 0,-2.121 0.409,-4.06 1.234,-5.828 0.707,-2.003 1.945,-4.183 3.71,-6.539 1.413,-2.002 3.297,-4.15 5.652,-6.445 2.354,-2.297 5.3,-4.978 8.834,-8.039 1.53,-1.298 3.207,-2.737 5.035,-4.33 1.823,-1.587 3.619,-3.325 5.386,-5.21 1.882,-1.882 3.505,-3.679 4.86,-5.384 1.352,-1.712 2.617,-3.387 3.798,-5.036 1.88,-2.825 3.236,-5.476 4.06,-7.95 1.647,-4.238 2.475,-8.363 2.475,-12.365 0,-6.244 -1.829,-12.013 -5.476,-17.314 -3.418,-4.945 -7.948,-8.716 -13.603,-11.304 -4.003,-1.649 -8.009,-2.474 -12.012,-2.474 -6.358,0 -12.187,1.823 -17.489,5.476 -5.062,3.413 -8.83,7.95 -11.305,13.603 -1.531,3.768 -2.295,7.776 -2.295,12.013 0,2.471 0.851,4.56 2.561,6.272 1.705,1.704 3.736,2.558 6.093,2.558 2.356,0 4.388,-0.854 6.097,-2.558 1.705,-1.712 2.56,-3.801 2.56,-6.272 0,-2.595 0.763,-5.124 2.298,-7.594 1.647,-2.241 3.649,-3.89 6.002,-4.951 1.768,-0.706 3.594,-1.058 5.478,-1.058 2.825,0 5.358,0.766 7.595,2.297 2.237,1.649 3.888,3.646 4.949,6.008 0.706,1.767 1.059,3.59 1.059,5.473 0,2.119 -0.414,4.063 -1.238,5.831 -0.706,2 -1.884,4.119 -3.532,6.359 -1.53,2.001 -3.444,4.179 -5.741,6.537 -2.298,2.352 -5.271,5.062 -8.923,8.124 -2.235,2.004 -4.503,4.031 -6.801,6.094 -2.293,2.063 -4.443,4.27 -6.445,6.622 -4.594,4.951 -7.891,9.955 -9.893,15.017 -1.651,4.243 -2.472,8.363 -2.472,12.367 0,3.178 0.468,6.243 1.413,9.186 0.939,2.944 2.234,5.711 3.886,8.301 3.766,5.181 8.362,8.891 13.777,11.132 3.649,1.647 7.656,2.472 12.013,2.472 6.475,0 12.304,-1.766 17.488,-5.297 4.949,-3.418 8.717,-7.95 11.305,-13.605 1.531,-3.77 2.298,-7.833 2.298,-12.189 0,-2.355 -0.857,-4.387 -2.562,-6.094 -1.71,-1.711 -3.742,-2.562 -6.092,-2.562 -2.359,0 -4.39,0.851 -6.096,2.562 -1.709,1.707 -2.563,3.739 -2.563,6.094 0,2.707 -0.768,5.3 -2.294,7.772 -1.652,2.234 -3.712,3.886 -6.184,4.946 -1.65,0.706 -3.418,1.059 -5.3,1.059 C 4.888,2.472 2.355,1.648 0,0" />
        </g>
        <g
           transform="translate(205.219,607.0562)"
           id="g84">
          <path
             inkscape:connector-curvature="0"
             id="path86"
             style="fill:#231f20;fill-opacity:1;fill-rule:nonzero;stroke:none"
             d="m 0,0 20.183,76.248 33.638,65.033 56.065,54.939 63.913,39.248 67.276,17.937 78.488,-5.602 68.397,-23.547 155.859,69.515 30.275,2.245 31.394,-7.847 20.183,-12.336 151.372,74.005 12.335,-4.484 12.332,-19.063 -3.364,-54.942 -12.332,-28.035 -29.154,-28.029 -26.911,-10.092 -2.243,-28.031 -10.092,-33.638 -23.546,-26.91 -29.151,-15.699 -7.852,-29.156 -21.303,-28.029 -30.274,-17.94 -21.303,-11.216 -10.091,-32.513 -22.427,-22.427 -19.063,-14.575 -8.968,-35.882 -22.426,-52.703 -32.519,-49.332 -48.213,-41.491 -60.549,-31.393 -61.669,-13.455 h -71.764 l -58.305,20.183 -60.549,32.518 -48.213,41.486 -30.275,50.457 -23.547,63.913 z" />
        </g>
        <g
           transform="translate(467.1145,625.0842)"
           id="g88">
          <path
             inkscape:connector-curvature="0"
             id="path90"
             style="fill:#ffffff;fill-opacity:1;fill-rule:nonzero;stroke:none"
             d="m 0,0 c -4.39,-7.652 -12.624,-12.82 -22.08,-12.82 -9.453,0 -17.688,5.168 -22.077,12.82 -23.049,-8.901 -39.472,-31.232 -39.472,-57.382 0,-6.691 1.11,-13.12 3.091,-19.155 0.286,0.01 0.565,0.045 0.852,0.045 14.057,0 25.457,-11.398 25.457,-25.457 0,-2.497 -0.377,-4.901 -1.046,-7.183 9.591,-6.172 20.966,-9.802 33.195,-9.802 12.23,0 23.606,3.63 33.196,9.802 -0.668,2.282 -1.043,4.686 -1.043,7.183 0,14.059 11.398,25.457 25.456,25.457 0.289,0 0.568,-0.035 0.85,-0.045 1.984,6.035 3.091,12.464 3.091,19.155 C 39.47,-31.232 23.049,-8.901 0,0" />
        </g>
        <g
           transform="translate(502.6432,497.6795)"
           id="g92">
          <path
             inkscape:connector-curvature="0"
             id="path94"
             style="fill:#ffffff;fill-opacity:1;fill-rule:nonzero;stroke:none"
             d="m 0,0 c -5.365,0 -10.34,1.667 -14.444,4.507 -12.393,-8.194 -27.226,-12.98 -43.165,-12.98 -15.934,0 -30.769,4.786 -43.161,12.98 C -104.877,1.667 -109.848,0 -115.214,0 c -14.06,0 -25.457,11.396 -25.457,25.457 0,7.679 3.415,14.548 8.792,19.214 -2.725,7.959 -4.225,16.479 -4.225,25.35 0,34.519 22.411,63.885 53.439,74.367 2.064,11.985 12.483,21.111 25.056,21.111 12.575,0 22.995,-9.126 25.061,-21.111 31.029,-10.482 53.434,-39.848 53.434,-74.367 0,-8.871 -1.5,-17.391 -4.221,-25.35 5.375,-4.67 8.792,-11.535 8.792,-19.214 C 25.457,11.396 14.058,0 0,0 M 483.26,433.593 356.905,375.606 342.596,369.042 10.572,223.535 c -4.81,1.777 -6.336,1.424 -11.301,2.705 l 310.191,146.239 c -1.299,0.81 -2.651,1.635 -4.061,2.479 -9.112,5.446 -19.54,8.207 -30.996,8.207 -15.795,0 -28.063,-5.325 -28.183,-5.379 L 16.594,274.787 16.581,274.779 -36.887,250.795 c 0.272,-0.013 0.545,-0.039 0.821,-0.052 l -68.431,-31.24 c -0.884,-0.401 -1.776,-0.761 -2.658,-1.178 -0.241,-0.118 -0.474,-0.245 -0.719,-0.366 l -0.616,-0.28 0.041,-0.009 c -37.367,-18.142 -64.011,-49.604 -76.892,-85.964 -0.116,-0.323 -0.251,-0.635 -0.366,-0.959 -13.504,-37.84 -11.466,-78.669 5.739,-114.974 11.034,-23.279 27.752,-42.873 48.005,-57.461 0.273,-0.199 0.549,-0.384 0.821,-0.58 1.086,-0.773 2.18,-1.537 3.287,-2.28 43.147,-29.446 100.315,-35.891 150.927,-11.904 2.442,1.156 4.821,2.391 7.173,3.659 l 86.837,41.204 7.181,3.286 c 0.589,0.283 1.215,0.659 1.819,0.986 l 0.648,0.307 0.087,0.09 c 9.411,5.281 20.381,15.655 28.003,26.742 1.34,1.948 2.512,3.863 3.587,5.745 L 85.542,-1.626 c 2.546,3.947 4.928,7.992 7.091,12.145 l 135.435,67.42 1.541,0.74 c 0.312,0.151 27.165,13.378 34.993,41.01 L 106.862,50.58 c 0.751,3.668 1.409,7.354 1.887,11.074 l 176.803,86.936 23.724,11.43 c 0.327,0.157 30.026,14.838 36.023,45.521 L 108.948,102.199 c -0.488,4.103 -1.136,4.818 -1.968,8.904 l 258.338,122.382 7.33,3.395 c 0.219,0.104 30.833,15.177 36.201,46.786 1.765,10.382 2.561,18.52 2.779,24.911 L 86.323,162.318 c -1.656,2.603 -3.354,5.17 -5.143,7.652 l 344.421,163.669 20.483,9.407 c 0.191,0.093 30.805,15.163 36.178,46.773 4.561,26.847 2.68,38.838 0.998,43.774" />
        </g>
      </g>
      <g
         id="g96"
         transform="translate(975.47223,-197.27345)">
        <g
           id="g98"
           clip-path="url(#clipPath102)">
          <g
             id="g104"
             transform="translate(674.221,505.9807)">
            <path
               d="m 0,0 c -10.331,-15.029 -25.532,-28.782 -38.728,-35.035 l -103.952,-47.6 c -1.524,-0.725 -3.093,-1.329 -4.663,-1.904 -21.673,-9.49 -44.57,-14.354 -68.178,-14.354 -65.675,0 -126.285,38.331 -154.399,97.654 -19.531,41.214 -21.849,87.565 -6.516,130.518 15.329,42.956 46.468,77.368 87.681,96.9 6.823,3.234 13.785,5.934 20.843,8.223 l 152.474,68.396 c -25.903,9.99 -54.008,15.507 -83.392,15.507 -128.339,0 -232.749,-104.41 -232.749,-232.749 0,-128.341 104.41,-232.75 232.749,-232.75 111.871,0 205.513,79.356 227.711,184.72 L 12.839,29.796 C 11.46,20.526 7.158,10.413 0,0"
               style="fill:#939598;fill-opacity:1;fill-rule:nonzero;stroke:none"
               id="path106"
               inkscape:connector-curvature="0" />
          </g>
        </g>
      </g>
      <g
         id="g108"
         transform="translate(975.47223,-197.27345)">
        <g
           id="g110"
           clip-path="url(#clipPath114)">
          <g
             id="g116"
             transform="translate(1001.6107,884.6603)">
            <path
               d="m 0,0 c -6.872,-40.453 -44.135,-58.54 -45.72,-59.294 l -24.748,-11.363 c 0.363,-8.93 -0.394,-20.498 -2.943,-35.494 -6.872,-40.454 -44.134,-58.545 -45.719,-59.294 l -16.021,-7.417 c -0.414,-3.187 -0.912,-6.541 -1.514,-10.095 -6.872,-40.455 -44.137,-58.545 -45.721,-59.294 l -32.982,-15.891 c -0.293,-1.993 -0.605,-4.028 -0.965,-6.153 -6.873,-40.453 -44.137,-58.543 -45.722,-59.294 l -6.573,-3.168 c -16.556,-127.446 -125.708,-226.227 -257.594,-226.227 -143.289,0 -259.863,116.572 -259.863,259.862 0,143.287 116.574,259.862 259.863,259.862 41.91,0 81.491,-10.036 116.58,-27.739 l 149.985,67.28 c 0.63,0.282 15.525,6.852 35.092,6.852 14.563,0 27.916,-3.572 39.693,-10.61 5.067,-3.027 9.533,-5.92 13.53,-8.689 l 157.331,72.206 2.955,-0.795 C -4.691,63.54 9.134,53.762 0,0 M -9.849,74.449 -16.341,76.192 -171.81,4.844 c -2.94,1.921 -6.034,3.851 -9.275,5.786 -13.373,7.996 -28.48,12.05 -44.909,12.05 -21.351,0 -37.47,-6.94 -39.249,-7.74 l -141.146,-63.315 c -37.581,18.69 -79.444,28.529 -121.667,28.529 -150.686,0 -273.276,-122.591 -273.276,-273.276 0,-150.687 122.59,-273.282 273.276,-273.282 136.625,0 251.086,99.772 270.415,233.757 7.807,4.109 42.878,24.673 49.905,66.031 0.058,0.344 0.115,0.681 0.168,1.015 l 28.112,13.545 c 1.776,0.843 43.638,21.164 51.389,66.78 0.279,1.649 0.542,3.283 0.787,4.894 l 11.08,5.132 c 1.777,0.844 43.64,21.168 51.387,66.776 1.988,11.69 3.05,21.862 3.205,30.736 l 18.818,8.638 c 1.779,0.845 43.637,21.169 51.388,66.779 9.645,56.771 -4.709,73.083 -18.447,76.77"
               style="fill:#d1d3d4;fill-opacity:1;fill-rule:nonzero;stroke:none"
               id="path118"
               inkscape:connector-curvature="0" />
          </g>
        </g>
      </g>
    </g>
  </g>
</svg>
