<?xml version="1.0" encoding="utf-8"?>
<!-- Generator: Adobe Illustrator 23.0.3, SVG Export Plug-In . SVG Version: 6.00 Build 0)  -->
<svg version="1.1" id="Layer_1" xmlns="http://www.w3.org/2000/svg" xmlns:xlink="http://www.w3.org/1999/xlink" x="0px" y="0px"
	 viewBox="0 0 283.46 283.46" style="enable-background:new 0 0 283.46 283.46;" xml:space="preserve">
<style type="text/css">
	.st0{fill:#FFFFFF;}
</style>
<g>
	<g>
		<g>
			<path class="st0" d="M26.27,244.88c2.13,0,3.95,0.71,5.46,2.12c1.51,1.41,2.27,3.11,2.27,5.09c0,1.95-0.73,3.63-2.19,5.03
				c-1.45,1.39-3.2,2.12-5.27,2.19h-0.02h-0.02h-0.03c-0.13,0.01-0.2,0.02-0.21,0.02l-0.1-0.02h-5.04v8.28
				c0,0.56-0.19,1.04-0.58,1.43c-0.4,0.4-0.88,0.6-1.45,0.6s-1.04-0.2-1.43-0.6c-0.4-0.39-0.6-0.87-0.6-1.43v-20.67
				c0-0.56,0.2-1.04,0.6-1.43c0.39-0.4,0.87-0.6,1.43-0.6H26.27z M26.39,255.25c0.97-0.02,1.81-0.34,2.5-0.95
				c0.69-0.62,1.03-1.35,1.03-2.2c0-0.86-0.36-1.6-1.07-2.22c-0.71-0.62-1.57-0.93-2.58-0.93h-5.15v6.3H26.39z"/>
		</g>
		<g>
			<path class="st0" d="M55.24,245.45c0.44,0.34,0.69,0.79,0.76,1.34c0.06,0.56-0.09,1.06-0.45,1.5l-7.45,9.33v9.97
				c0,0.56-0.2,1.04-0.6,1.45c-0.39,0.39-0.87,0.58-1.43,0.58s-1.04-0.19-1.43-0.58c-0.4-0.4-0.6-0.88-0.6-1.45v-9.97l-7.45-9.33
				c-0.36-0.44-0.5-0.93-0.43-1.5c0.06-0.55,0.3-1,0.74-1.34c0.44-0.36,0.94-0.5,1.5-0.45c0.55,0.07,1,0.32,1.36,0.76l6.32,7.92
				l6.33-7.92c0.34-0.44,0.79-0.69,1.34-0.76C54.3,244.95,54.8,245.1,55.24,245.45z"/>
		</g>
		<g>
			<path class="st0" d="M76.48,252.08c0,1.52-0.47,2.89-1.41,4.12c-0.91,1.22-2.1,2.08-3.58,2.6l3.91,7.92
				c0.24,0.49,0.27,1,0.09,1.53c-0.17,0.53-0.51,0.92-1.02,1.17c-0.29,0.14-0.58,0.21-0.9,0.21c-0.84,0-1.44-0.38-1.81-1.14
				l-4.56-9.24h-3.49v8.21c0,0.55-0.2,1.03-0.6,1.43c-0.39,0.39-0.87,0.58-1.43,0.58c-0.55,0-1.03-0.19-1.43-0.58
				c-0.39-0.4-0.59-0.88-0.59-1.43v-20.52c0-0.56,0.19-1.04,0.59-1.43c0.4-0.4,0.88-0.6,1.43-0.6h7.13c2.12,0,3.93,0.7,5.42,2.1
				C75.73,248.4,76.48,250.09,76.48,252.08z M68.94,255.19c0.97-0.03,1.79-0.35,2.48-0.95c0.68-0.61,1.02-1.33,1.02-2.17
				c0-0.87-0.36-1.61-1.07-2.22c-0.71-0.61-1.57-0.91-2.57-0.91h-5.09v6.25H68.94z"/>
		</g>
		<g>
			<path class="st0" d="M80.58,269.46c-0.52-0.22-0.88-0.58-1.1-1.1c-0.21-0.52-0.21-1.03,0-1.55l2.19-5.25v-0.02l6.33-15.29
				c0.02-0.06,0.05-0.11,0.09-0.17l0.04-0.09c0.03-0.05,0.06-0.07,0.07-0.09c0-0.01,0.02-0.04,0.05-0.09
				c0.03-0.03,0.06-0.06,0.07-0.07c0-0.01,0.02-0.03,0.05-0.07c0.05-0.05,0.07-0.07,0.07-0.09c0.01-0.01,0.03-0.03,0.07-0.05
				c0.05-0.05,0.07-0.07,0.09-0.07c-0.01,0,0.01-0.02,0.07-0.05c0.05-0.03,0.07-0.06,0.09-0.07l0.07-0.05
				c0.06-0.04,0.09-0.05,0.1-0.05c0.02-0.01,0.06-0.03,0.12-0.05c0.06-0.03,0.07-0.05,0.05-0.03s0,0,0.07-0.03
				c0.06-0.01,0.1-0.02,0.12-0.04c0.01,0,0.05-0.01,0.12-0.03l0.07-0.02c0.02,0,0.06-0.01,0.12-0.02l0.09-0.02c0.01,0,0.05,0,0.1,0
				c0.05,0,0.07,0,0.09,0c0.02,0,0.06,0,0.1,0h0.1l0.1,0.02l0.09,0.02c0.02,0,0.06,0.01,0.12,0.03c0.07,0.01,0.09,0.02,0.07,0.02
				c0.14,0.04,0.26,0.09,0.38,0.16c-0.01-0.01,0.01,0,0.07,0.03c0.06,0.03,0.09,0.06,0.1,0.07l0.07,0.05
				c0.05,0.03,0.07,0.06,0.09,0.07c0.01,0,0.03,0.02,0.07,0.05c0.03,0.03,0.06,0.06,0.09,0.07c0,0.01,0.02,0.03,0.05,0.07
				c0.05,0.05,0.07,0.07,0.07,0.09l0.05,0.07c0.05,0.05,0.07,0.07,0.07,0.09c0,0.01,0.02,0.04,0.05,0.09
				c0.03,0.05,0.05,0.07,0.05,0.09c0.03,0.06,0.06,0.12,0.09,0.17l6.33,15.29v0.02l2.19,5.25c0.21,0.52,0.21,1.03,0,1.55
				c-0.22,0.52-0.58,0.88-1.1,1.1c-0.25,0.1-0.51,0.16-0.77,0.16c-0.91,0-1.53-0.42-1.88-1.26l-1.65-3.99h-9.97l-1.65,3.99
				c-0.34,0.84-0.97,1.26-1.88,1.26c-0.26,0-0.4,0-0.4,0S80.83,269.57,80.58,269.46z M93.17,260.32l-3.32-7.99l-3.31,7.99H93.17z"/>
		</g>
		<g>
			<path class="st0" d="M127.07,244.94c0.44,0.13,0.79,0.37,1.07,0.74c0.28,0.36,0.41,0.76,0.41,1.22v20.69
				c0,0.56-0.2,1.04-0.59,1.43c-0.4,0.4-0.88,0.6-1.45,0.6c-0.56,0-1.04-0.2-1.45-0.6c-0.39-0.39-0.58-0.87-0.58-1.43V254.2
				l-6.42,10.6v0.02l-0.02,0.02l-0.02,0.02l-0.02,0.02c-0.03,0.06-0.06,0.1-0.07,0.12l-0.05,0.07c-0.05,0.05-0.07,0.07-0.09,0.09
				c-0.01,0.01-0.03,0.03-0.07,0.07c-0.03,0.04-0.06,0.06-0.07,0.07c-0.02,0.02-0.06,0.05-0.1,0.09l-0.05,0.05
				c-0.03,0.02-0.07,0.05-0.12,0.07c0,0.01-0.01,0.02-0.02,0.02l-0.02,0.02h-0.02c-0.02,0.02-0.06,0.05-0.12,0.07
				c-0.05,0.02-0.06,0.03-0.05,0.03c-0.01,0-0.05,0.01-0.1,0.03c-0.26,0.12-0.54,0.17-0.83,0.15h-0.03c0.02,0,0,0-0.07-0.02
				c-0.15-0.01-0.3-0.04-0.45-0.09c-0.06-0.01-0.08-0.02-0.07-0.02c0.02,0.01,0,0.01-0.07-0.02c-0.06-0.02-0.1-0.04-0.12-0.05
				c0.01,0,0-0.01-0.03-0.03c-0.06-0.02-0.1-0.05-0.14-0.07h-0.02l-0.02-0.02l-0.02-0.02c-0.05-0.02-0.09-0.05-0.12-0.09
				c0,0.01-0.02,0-0.05-0.03c-0.05-0.03-0.08-0.06-0.1-0.09c-0.01-0.01-0.03-0.03-0.07-0.07c-0.04-0.03-0.06-0.06-0.07-0.07
				c-0.01-0.02-0.04-0.05-0.09-0.09c-0.02-0.03-0.03-0.06-0.03-0.07c-0.02-0.02-0.05-0.06-0.09-0.12l-0.02-0.02
				c0-0.01,0-0.02-0.02-0.02v-0.02c0-0.01-0.01-0.02-0.02-0.02l-6.4-10.6v13.39c0,0.56-0.2,1.04-0.6,1.43
				c-0.4,0.4-0.88,0.6-1.45,0.6c-0.56,0-1.04-0.2-1.43-0.6c-0.4-0.39-0.6-0.87-0.6-1.43V246.9c0-0.46,0.14-0.87,0.41-1.22
				c0.28-0.37,0.64-0.61,1.09-0.74c0.44-0.11,0.87-0.09,1.29,0.07c0.42,0.17,0.76,0.45,1,0.84l8.47,13.99l8.47-13.99
				c0.23-0.39,0.56-0.67,0.98-0.84c0.42-0.16,0.64-0.24,0.64-0.24S126.62,244.82,127.07,244.94z"/>
		</g>
		<g>
			<path class="st0" d="M138.01,269.62c-0.56,0-1.04-0.2-1.43-0.6c-0.4-0.39-0.6-0.87-0.6-1.43v-20.53c0-0.56,0.2-1.04,0.6-1.43
				c0.39-0.4,0.87-0.6,1.43-0.6c0.56,0,1.04,0.2,1.43,0.6c0.4,0.39,0.6,0.87,0.6,1.43v20.53c0,0.56-0.2,1.04-0.6,1.43
				C139.05,269.42,138.57,269.62,138.01,269.62z"/>
		</g>
		<g>
			<path class="st0" d="M149.12,269.62c-0.55,0-1.03-0.19-1.43-0.58c-0.4-0.4-0.6-0.88-0.6-1.45v-20.6c0-0.56,0.2-1.04,0.6-1.45
				c0.39-0.39,0.87-0.58,1.43-0.58h5.21c3.4,0,6.3,1.2,8.71,3.6c2.4,2.41,3.6,5.31,3.6,8.69c0,3.4-1.2,6.29-3.6,8.69
				c-2.41,2.41-5.31,3.61-8.71,3.61l-5.18,0.07H149.12z M151.17,265.52l3.15-0.05c2.28,0,4.23-0.8,5.83-2.41s2.41-3.55,2.41-5.82
				c0-2.26-0.8-4.19-2.41-5.8c-1.61-1.62-3.54-2.43-5.82-2.43h-3.17V265.52z"/>
		</g>
		<g>
			<path class="st0" d="M169.77,269.46c-0.52-0.22-0.88-0.58-1.1-1.1c-0.21-0.52-0.21-1.03,0-1.55l2.19-5.25v-0.02l6.33-15.29
				c0.02-0.06,0.05-0.11,0.09-0.17l0.04-0.09c0.03-0.05,0.06-0.07,0.07-0.09c0-0.01,0.02-0.04,0.05-0.09
				c0.03-0.03,0.06-0.06,0.07-0.07c0-0.01,0.02-0.03,0.05-0.07c0.05-0.05,0.07-0.07,0.07-0.09c0.01-0.01,0.03-0.03,0.07-0.05
				c0.05-0.05,0.07-0.07,0.09-0.07c-0.01,0,0.01-0.02,0.07-0.05c0.05-0.03,0.07-0.06,0.09-0.07l0.07-0.05
				c0.06-0.04,0.09-0.05,0.1-0.05c0.02-0.01,0.06-0.03,0.12-0.05c0.06-0.03,0.07-0.05,0.05-0.03c-0.02,0.01,0,0,0.07-0.03
				c0.06-0.01,0.1-0.02,0.12-0.04c0.01,0,0.05-0.01,0.12-0.03l0.07-0.02c0.02,0,0.06-0.01,0.12-0.02l0.09-0.02c0.01,0,0.05,0,0.1,0
				c0.05,0,0.07,0,0.09,0c0.02,0,0.06,0,0.1,0h0.1l0.1,0.02l0.09,0.02c0.02,0,0.06,0.01,0.12,0.03c0.07,0.01,0.09,0.02,0.07,0.02
				c0.14,0.04,0.26,0.09,0.38,0.16c-0.01-0.01,0.01,0,0.07,0.03c0.06,0.03,0.09,0.06,0.1,0.07l0.07,0.05
				c0.05,0.03,0.07,0.06,0.09,0.07c0.01,0,0.03,0.02,0.07,0.05c0.03,0.03,0.06,0.06,0.09,0.07c0,0.01,0.02,0.03,0.05,0.07
				c0.05,0.05,0.07,0.07,0.07,0.09l0.05,0.07c0.05,0.05,0.07,0.07,0.07,0.09c0,0.01,0.02,0.04,0.05,0.09
				c0.03,0.05,0.05,0.07,0.05,0.09c0.03,0.06,0.06,0.12,0.09,0.17l6.33,15.29v0.02l2.19,5.25c0.21,0.52,0.21,1.03,0,1.55
				c-0.22,0.52-0.58,0.88-1.1,1.1c-0.25,0.1-0.51,0.16-0.77,0.16c-0.91,0-1.53-0.42-1.88-1.26l-1.65-3.99h-9.97l-1.65,3.99
				c-0.34,0.84-0.97,1.26-1.88,1.26c-0.26,0-0.4,0-0.4,0S170.02,269.57,169.77,269.46z M182.36,260.32l-3.32-7.99l-3.31,7.99H182.36
				z"/>
		</g>
		<g>
			<path class="st0" d="M218.77,269.62c-0.56,0-1.04-0.2-1.45-0.6s-0.6-0.88-0.6-1.45v-8.24h-10.6v8.24c0,0.56-0.19,1.04-0.58,1.45
				c-0.4,0.4-0.88,0.6-1.45,0.6c-0.56,0-1.04-0.2-1.45-0.6c-0.4-0.4-0.6-0.88-0.6-1.45V247c0-0.56,0.2-1.04,0.6-1.45
				c0.4-0.4,0.88-0.6,1.45-0.6c0.56,0,1.04,0.2,1.45,0.6c0.39,0.4,0.58,0.88,0.58,1.45v8.24h10.6V247c0-0.56,0.2-1.04,0.6-1.45
				s0.88-0.6,1.45-0.6c0.56,0,1.04,0.2,1.45,0.6s0.6,0.88,0.6,1.45v20.57c0,0.56-0.2,1.04-0.6,1.45S219.34,269.62,218.77,269.62z"/>
		</g>
		<g>
			<path class="st0" d="M241.8,244.94c0.55,0,1.02,0.2,1.41,0.59c0.39,0.39,0.58,0.86,0.58,1.41v13.87c0,2.43-0.86,4.51-2.58,6.23
				c-1.72,1.72-3.79,2.58-6.21,2.58c-2.43,0-4.51-0.86-6.23-2.58c-1.72-1.72-2.58-3.8-2.58-6.23v-13.87c0-0.55,0.19-1.02,0.58-1.41
				c0.39-0.39,0.86-0.59,1.41-0.59s1.02,0.2,1.41,0.59c0.39,0.39,0.58,0.86,0.58,1.41v13.87c0,1.33,0.47,2.47,1.41,3.41
				c0.94,0.94,2.08,1.41,3.41,1.41c1.32,0,2.45-0.47,3.39-1.41c0.94-0.94,1.41-2.08,1.41-3.41v-13.87c0-0.55,0.19-1.02,0.58-1.41
				C240.78,245.13,241.25,244.94,241.8,244.94z"/>
		</g>
		<g>
			<path class="st0" d="M251.29,269.62c-0.56,0-1.04-0.2-1.43-0.6c-0.4-0.39-0.6-0.87-0.6-1.43v-20.57c0-0.55,0.19-1.03,0.58-1.43
				c0.4-0.39,0.88-0.59,1.43-0.6l7.23-0.03c2.16,0,3.98,0.69,5.47,2.06c1.48,1.38,2.22,3.06,2.22,5.06c0,1.93-0.71,3.6-2.12,5.01
				c1.7,1.4,2.55,3.17,2.55,5.32c0,1.99-0.76,3.68-2.27,5.1c-1.5,1.41-3.32,2.12-5.44,2.12H251.29z M253.32,255.3h5.2
				c0.97,0,1.82-0.32,2.55-0.95c0.71-0.64,1.07-1.4,1.07-2.27c0-0.86-0.35-1.58-1.05-2.17c-0.7-0.6-1.56-0.9-2.57-0.9l-5.2,0.04
				V255.3z M253.32,265.56h5.6c1.01,0,1.87-0.31,2.58-0.93c0.71-0.61,1.07-1.35,1.07-2.22c0-0.85-0.35-1.57-1.05-2.15
				c-0.7-0.6-1.56-0.9-2.57-0.9c-0.06,0-0.11,0-0.16,0c-0.09,0-0.18,0-0.27,0h-5.2V265.56z"/>
		</g>
	</g>
	<g>
		<g>
			<g>
				<path class="st0" d="M117.32,50.03c-0.65,0-1.3-0.3-1.72-0.86c-0.71-0.95-0.52-2.29,0.43-3.01c13-9.78,29.22-33.48,29.39-33.72
					c0.67-0.98,2-1.23,2.99-0.57c0.98,0.67,1.23,2.01,0.57,2.99c-0.68,1-16.79,24.53-30.36,34.73
					C118.23,49.88,117.77,50.03,117.32,50.03z"/>
			</g>
			<g>
				<path class="st0" d="M102.36,74.68c-0.74,0-1.47-0.39-1.86-1.08c-0.59-1.03-0.23-2.34,0.79-2.93
					c30.71-17.62,49.48-48.58,49.67-48.89c0.61-1.02,1.93-1.35,2.95-0.74c1.02,0.61,1.35,1.93,0.74,2.95
					c-0.78,1.31-19.53,32.24-51.21,50.41C103.09,74.59,102.72,74.68,102.36,74.68z"/>
			</g>
			<g>
				<path class="st0" d="M91.05,93.3c-0.83,0-1.62-0.48-1.97-1.29c-0.47-1.09,0.02-2.35,1.11-2.83
					c38.24-16.7,66.46-57.37,66.74-57.78c0.67-0.98,2.01-1.23,2.99-0.56c0.98,0.67,1.23,2.01,0.56,2.99
					c-1.17,1.71-29.17,42.09-68.56,59.29C91.63,93.24,91.34,93.3,91.05,93.3z"/>
			</g>
			<g>
				<path class="st0" d="M144.49,67.22c-0.59,0-1.17-0.24-1.6-0.71c-0.79-0.88-0.72-2.24,0.16-3.03
					c10.42-9.38,19.49-22.56,19.58-22.69c0.67-0.98,2.01-1.23,2.99-0.56c0.98,0.67,1.23,2.01,0.56,2.99
					c-0.38,0.56-9.44,13.73-20.25,23.46C145.51,67.04,145,67.22,144.49,67.22z"/>
			</g>
			<g>
				<path class="st0" d="M81.47,109.08c-0.85,0-1.65-0.51-1.99-1.34c-0.45-1.1,0.08-2.35,1.18-2.8
					c35.18-14.3,53.48-33.67,53.66-33.87c0.81-0.87,2.17-0.92,3.04-0.11c0.87,0.81,0.92,2.17,0.11,3.04
					c-0.77,0.82-19.13,20.26-55.18,34.92C82.02,109.03,81.74,109.08,81.47,109.08z"/>
			</g>
			<g>
				<path class="st0" d="M97.33,176.5c-8.21,0-15.63-2.71-21.49-8.03c-3.9-3.54-6.91-8.15-8.71-13.35
					c-4.3-12.46-1.16-26.14,7.82-34.06c4.04-3.56,8.53-5.62,12.86-7.61c1.37-0.63,2.76-1.27,4.15-1.96
					c52.25-25.93,76.17-60.86,76.4-61.21c0.66-0.99,2-1.24,2.98-0.58c0.98,0.66,1.25,2,0.58,2.98c-0.24,0.36-24.8,36.23-78.06,62.66
					c-1.43,0.71-2.86,1.37-4.27,2.01c-4.24,1.95-8.25,3.78-11.81,6.93c-7.69,6.78-10.34,18.61-6.6,29.44
					c1.56,4.52,4.16,8.52,7.53,11.57c11.42,10.36,25.82,6.9,33.39,3.91c0.32-0.15,42.25-19.4,69.82-44.07
					c0.13-0.13,18.04-17.2,20.29-19.66c0.8-0.87,2.16-0.93,3.04-0.13c0.87,0.8,0.93,2.16,0.13,3.04
					c-2.35,2.56-19.81,19.2-20.55,19.91c-28.12,25.16-70.63,44.68-71.06,44.87C108.13,175.4,102.57,176.5,97.33,176.5z"/>
			</g>
			<g>
				<path class="st0" d="M203.44,123.58c-0.54,0-1.09-0.2-1.51-0.62c-0.85-0.83-0.86-2.19-0.02-3.04l5.68-5.77
					c0.84-0.84,2.2-0.86,3.04-0.02c0.85,0.83,0.86,2.19,0.02,3.04l-5.68,5.77C204.55,123.37,204,123.58,203.44,123.58z"/>
			</g>
			<g>
				<path class="st0" d="M96.27,187.34c-3.19,0-6.17-0.44-8.84-1.45c-1.11-0.42-1.67-1.66-1.25-2.77c0.42-1.11,1.66-1.66,2.77-1.25
					c19.22,7.3,60.56-20.54,60.98-20.82c23.27-14.38,45.65-35.44,45.88-35.65c0.86-0.82,2.22-0.78,3.04,0.09
					c0.82,0.86,0.78,2.22-0.09,3.04c-0.23,0.21-22.93,21.58-46.49,36.14C150.79,165.66,118.57,187.34,96.27,187.34z"/>
			</g>
			<g>
				<path class="st0" d="M77.89,181.95c-0.39,0-0.78-0.11-1.14-0.33c-21.59-13.5-21.84-33.62-21.84-34.47
					c0-1.19,0.96-2.15,2.15-2.15c1.18,0,2.15,0.96,2.15,2.14c0.01,0.79,0.35,18.65,19.82,30.83c1.01,0.63,1.31,1.95,0.68,2.96
					C79.3,181.59,78.6,181.95,77.89,181.95z"/>
			</g>
			<g>
				<path class="st0" d="M254.27,218.64c-0.83,0-1.62-0.48-1.97-1.29c-9.6-21.96-27.51-37.32-49.14-42.15
					c-13.74-3.07-29.17-2.51-44.61,1.63c-7.95,2.13-15.64,5.61-23.08,8.97c-7.97,3.6-16.22,7.33-24.97,9.52
					c-26.82,6.71-55.73-9.3-63.15-34.98c-0.33-1.14,0.33-2.33,1.47-2.66c1.13-0.32,2.33,0.33,2.66,1.47
					c6.8,23.52,33.36,38.18,57.98,32c8.38-2.1,16.44-5.74,24.24-9.27c7.6-3.43,15.45-6.98,23.74-9.2
					c16.11-4.32,32.24-4.9,46.65-1.67c22.99,5.14,41.99,21.4,52.15,44.63c0.47,1.09-0.02,2.35-1.11,2.83
					C254.85,218.58,254.56,218.64,254.27,218.64z"/>
			</g>
			<g>
				<path class="st0" d="M98.2,207.93c-9.14,0-18.46-2.28-28.7-6.83c-19.33-8.6-28.25-28.84-28.62-29.7
					c-0.47-1.09,0.03-2.35,1.12-2.82c1.09-0.47,2.35,0.03,2.82,1.12c0.08,0.19,8.66,19.57,26.42,27.47
					c19.23,8.55,34.99,8.56,52.7,0.03c20.23-9.74,38.37-17.83,55.53-18.04c16.61-0.19,24.09,2.04,27.27,3l0.33,0.1
					c1.14,0.34,1.78,1.54,1.44,2.67c-0.34,1.14-1.54,1.79-2.67,1.44l-0.35-0.1c-2.99-0.9-9.94-3.03-25.98-2.81
					c-16.28,0.21-33.96,8.1-53.72,17.62C116.31,205.64,107.35,207.93,98.2,207.93z"/>
			</g>
			<g>
				<path class="st0" d="M242.45,218.64c-0.81,0-1.58-0.45-1.95-1.23c-8.61-18.29-23.6-26.17-23.75-26.25
					c-1.06-0.54-1.47-1.84-0.93-2.89c0.54-1.06,1.84-1.47,2.89-0.93c0.67,0.34,16.44,8.64,25.67,28.24
					c0.51,1.07,0.05,2.35-1.03,2.86C243.07,218.58,242.76,218.64,242.45,218.64z"/>
			</g>
			<g>
				<path class="st0" d="M171.77,163.68c-0.71,0-1.4-0.35-1.81-0.99c-0.64-1-0.35-2.33,0.65-2.97
					c14.05-9.02,42.18-36.35,42.46-36.63c0.85-0.83,2.21-0.81,3.04,0.04c0.83,0.85,0.81,2.21-0.04,3.04
					c-1.17,1.14-28.73,27.92-43.14,37.16C172.57,163.58,172.17,163.68,171.77,163.68z"/>
			</g>
			<g>
				<path class="st0" d="M231.71,174.86c-0.45,0-0.91-0.14-1.29-0.43c-15.57-11.68-39.35-12.53-39.59-12.53
					c-0.93-0.03-1.73-0.65-2-1.54c-0.26-0.89,0.07-1.85,0.84-2.38c8.57-5.92,28.87-25.37,29.07-25.57c0.85-0.82,2.21-0.79,3.04,0.06
					c0.82,0.86,0.79,2.22-0.06,3.04c-0.72,0.69-15.3,14.65-25.06,22.54c7.45,0.86,20.84,3.29,32.14,10.11
					c-0.17-3.6,0.49-8.4,4.15-12.2c0.83-0.85,2.19-0.88,3.04-0.06c0.85,0.82,0.88,2.18,0.06,3.04c-4.85,5.03-2.32,13.02-2.3,13.1
					c0.29,0.89-0.03,1.87-0.79,2.41C232.59,174.72,232.15,174.86,231.71,174.86z"/>
			</g>
			<g>
				<path class="st0" d="M214.57,155.48c-0.58,0-1.16-0.23-1.58-0.7c-0.8-0.88-0.74-2.23,0.13-3.03l11.2-10.25
					c0.88-0.8,2.23-0.74,3.03,0.13c0.8,0.88,0.74,2.23-0.13,3.03l-11.2,10.25C215.61,155.3,215.09,155.48,214.57,155.48z"/>
			</g>
			<g>
				<path class="st0" d="M264.58,218.64c-0.66,0-1.31-0.3-1.73-0.87c-1.1-1.48-26.92-36.53-24.76-52.12
					c0.16-1.17,1.25-1.99,2.42-1.83c1.17,0.16,2,1.25,1.83,2.42c-1.6,11.51,16.75,39.25,23.95,48.97c0.71,0.95,0.51,2.3-0.45,3
					C265.47,218.5,265.03,218.64,264.58,218.64z"/>
			</g>
			<g>
				<path class="st0" d="M230.1,218.64c-0.74,0-1.45-0.38-1.85-1.06c-10.41-17.67-28.56-22.93-41.95-24.23
					c-6.44-0.62-13.43,0.02-20.76,1.91c-8.87,2.29-17.35,6.28-25.56,10.14c-5.88,2.77-11.97,5.63-18.23,7.9
					c-15.2,5.5-30.82,6.09-45.19,1.72c-14.98-4.56-34.48-16.91-41.92-33.29c-0.49-1.08-0.01-2.35,1.07-2.84
					c1.08-0.49,2.35-0.01,2.84,1.07c6.88,15.16,25.17,26.67,39.25,30.95c13.47,4.1,28.16,3.53,42.48-1.65
					c6.07-2.2,12.06-5.02,17.86-7.74c8.38-3.94,17.05-8.02,26.31-10.41c7.82-2.02,15.31-2.7,22.25-2.03
					c14.39,1.4,33.92,7.1,45.24,26.33c0.6,1.02,0.26,2.34-0.76,2.94C230.85,218.55,230.47,218.64,230.1,218.64z"/>
			</g>
			<g>
				<path class="st0" d="M59.2,218.64c-0.38,0-0.76-0.1-1.1-0.31c-22.18-13.31-29.03-26.23-29.31-26.77
					c-0.55-1.05-0.13-2.35,0.92-2.89c1.05-0.54,2.34-0.13,2.89,0.92c0.1,0.18,6.74,12.48,27.71,25.06c1.02,0.61,1.35,1.93,0.74,2.95
					C60.64,218.27,59.93,218.64,59.2,218.64z"/>
			</g>
			<g>
				<path class="st0" d="M25.68,218.64c-0.52,0-1.04-0.19-1.45-0.56c-4.6-4.2-6.75-7-6.84-7.11c-0.72-0.94-0.54-2.29,0.4-3.01
					c0.94-0.72,2.29-0.54,3.01,0.4c0.02,0.03,2.04,2.64,6.32,6.55c0.88,0.8,0.94,2.16,0.14,3.03
					C26.84,218.41,26.27,218.64,25.68,218.64z"/>
			</g>
			<g>
				<path class="st0" d="M40.93,218.64c-0.44,0-0.88-0.13-1.26-0.41c-3.1-2.25-6.74-5.81-6.9-5.96c-0.85-0.83-0.86-2.19-0.03-3.04
					c0.83-0.85,2.19-0.86,3.04-0.03c0.04,0.03,3.58,3.49,6.42,5.56c0.96,0.7,1.17,2.04,0.47,3
					C42.25,218.33,41.6,218.64,40.93,218.64z"/>
			</g>
			<g>
				<path class="st0" d="M136.97,218.64c-0.82,0-1.6-0.47-1.96-1.27c-0.49-1.08-0.01-2.35,1.08-2.84c0.09-0.04,9.36-4.23,15.68-7.67
					c1.04-0.57,2.35-0.19,2.91,0.86c0.57,1.04,0.18,2.35-0.86,2.91c-6.46,3.52-15.59,7.64-15.97,7.81
					C137.56,218.58,137.26,218.64,136.97,218.64z"/>
			</g>
			<g>
				<path class="st0" d="M217.74,218.64c-0.56,0-1.12-0.22-1.55-0.66c-6.48-6.71-15.26-10.22-15.35-10.25
					c-19.58-8.62-37.85-0.14-38.04-0.06c-1.07,0.51-2.35,0.05-2.86-1.02c-0.51-1.07-0.05-2.35,1.02-2.86
					c0.82-0.39,20.25-9.4,41.53-0.03c0.32,0.12,9.68,3.85,16.79,11.24c0.82,0.85,0.8,2.21-0.06,3.04
					C218.82,218.44,218.28,218.64,217.74,218.64z"/>
			</g>
			<g>
				<path class="st0" d="M199.7,218.64c-0.3,0-0.59-0.06-0.88-0.19c-19.77-8.91-36.6-0.15-36.77-0.07
					c-1.05,0.56-2.35,0.16-2.91-0.88c-0.56-1.04-0.17-2.34,0.87-2.91c0.76-0.41,18.8-9.88,40.57-0.07c1.08,0.49,1.56,1.76,1.08,2.84
					C201.3,218.17,200.52,218.64,199.7,218.64z"/>
			</g>
			<g>
				<path class="st0" d="M97.65,166.71c-0.31,0-0.62-0.01-0.94-0.02c-12.56-0.48-18.74-11.86-19-12.35
					c-0.03-0.06-0.06-0.11-0.08-0.17c-2.77-6.49-3.06-12.51-0.89-17.91c3.51-8.69,12.19-12.44,12.55-12.59
					c52.73-21.85,84.46-63.78,84.77-64.2c0.71-0.95,2.06-1.14,3.01-0.44c0.95,0.71,1.15,2.06,0.44,3.01
					c-0.32,0.43-32.71,43.28-86.56,65.59c-0.67,0.29-16.74,7.4-9.42,24.75c0.49,0.85,5.73,9.64,15.34,10
					c7.66,0.32,15.53-3.88,22.54-7.57c0.9-0.47,1.78-0.94,2.66-1.39c11.58-5.98,23.43-13.55,38.43-24.53
					c14.76-10.81,25.1-20,33.51-29.8c0.82-0.96,1.63-1.94,2.43-2.93c0.74-0.93,2.09-1.08,3.02-0.33c0.93,0.74,1.08,2.09,0.33,3.02
					c-0.82,1.03-1.66,2.04-2.52,3.04c-8.63,10.06-19.19,19.46-34.23,30.47c-15.18,11.12-27.21,18.79-38.99,24.88
					c-0.86,0.44-1.74,0.91-2.63,1.37C114.2,162.43,106.06,166.71,97.65,166.71z"/>
			</g>
			<g>
				<path class="st0" d="M127.58,119.21c-0.77,0-1.51-0.41-1.9-1.14c-0.56-1.05-0.16-2.35,0.89-2.91
					c26.86-14.24,52.96-46.11,53.22-46.43c0.75-0.92,2.1-1.06,3.02-0.31c0.92,0.75,1.06,2.1,0.31,3.02
					c-1.09,1.33-26.92,32.87-54.54,47.52C128.26,119.13,127.91,119.21,127.58,119.21z"/>
			</g>
			<g>
				<path class="st0" d="M97.22,146.5c-0.88,0-1.71-0.55-2.02-1.42c-0.4-1.12,0.18-2.35,1.3-2.75
					c51.68-18.49,88.45-63.99,88.82-64.44c0.74-0.92,2.09-1.08,3.02-0.34c0.93,0.74,1.08,2.09,0.34,3.02
					c-0.37,0.47-37.92,46.91-90.73,65.81C97.71,146.46,97.46,146.5,97.22,146.5z"/>
			</g>
			<g>
				<path class="st0" d="M97.66,156.55c-3.48,0-6.66-1.23-8.97-3.61c-3.36-3.46-4.08-8.69-1.88-13.64c1.4-3.16,4.45-5.83,8.35-7.34
					c8.17-3.15,21.86-11.14,21.99-11.23c1.03-0.6,2.34-0.25,2.94,0.77c0.6,1.03,0.26,2.34-0.77,2.94
					c-0.57,0.34-14.13,8.25-22.62,11.52c-2.81,1.08-5.04,2.98-5.97,5.08c-1.5,3.37-1.11,6.7,1.03,8.91c2.42,2.5,6.5,3,10.63,1.31
					c4.04-1.65,8.35-3.89,12.52-6.06c1.86-0.97,3.67-1.91,5.41-2.77c11.83-5.88,40.67-25.9,50.59-35.12
					c6.7-6.22,13.19-12.97,19.84-20.64c0.78-0.9,2.13-0.99,3.03-0.21c0.9,0.78,0.99,2.13,0.21,3.03
					c-6.75,7.78-13.34,14.64-20.16,20.97c-10.33,9.6-39.26,29.68-51.6,35.82c-1.71,0.85-3.5,1.78-5.34,2.74
					c-4.25,2.21-8.65,4.5-12.87,6.23C101.88,156.12,99.72,156.55,97.66,156.55z"/>
			</g>
		</g>
		<g>
			<path class="st0" d="M223.55,160.1c-0.14,0-0.28-0.01-0.42-0.04c-1.16-0.23-1.92-1.36-1.69-2.53c1-4.97,6.74-9.29,7.39-9.76
				c0.96-0.7,2.3-0.49,3,0.47s0.49,2.3-0.46,3c-1.4,1.02-5.15,4.3-5.71,7.14C225.45,159.4,224.55,160.1,223.55,160.1z"/>
		</g>
	</g>
</g>
</svg>
